<svg width="105" height="105" viewBox="0 0 105 105" fill="none" xmlns="http://www.w3.org/2000/svg">
<circle cx="52.5" cy="52.5" r="52.5" fill="#D7CFF4"/>
<path d="M29.0425 66.1128H75.3358V69.1854C75.3358 71.3585 74.4726 73.4425 72.936 74.9791C71.3994 76.5157 69.3154 77.3789 67.1423 77.3789H37.236C35.0629 77.3789 32.9789 76.5157 31.4423 74.9791C29.9057 73.4425 29.0425 71.3585 29.0425 69.1854V66.1128Z" stroke="black" stroke-width="4.09676" stroke-linecap="round" stroke-linejoin="round"/>
<path d="M69.8048 53.6176H75.1307C75.9548 53.5901 76.7759 53.7288 77.5453 54.0253C78.3146 54.3217 79.0165 54.77 79.609 55.3434C80.2015 55.9168 80.6725 56.6036 80.994 57.3628C81.3156 58.122 81.4811 58.9382 81.4806 59.7627C81.4806 61.4468 80.8116 63.062 79.6208 64.2528C78.4299 65.4437 76.8148 66.1127 75.1307 66.1127H29.2469C28.4224 66.1132 27.6063 65.9477 26.8471 65.6262C26.0878 65.3046 25.401 64.8335 24.8276 64.241C24.2542 63.6485 23.8059 62.9467 23.5094 62.1773C23.213 61.408 23.0743 60.5868 23.1018 59.7627C23.0732 58.948 23.2126 58.1362 23.5113 57.3777C23.81 56.6191 24.2616 55.9302 24.8381 55.3538C25.4145 54.7774 26.1034 54.3258 26.8619 54.0271C27.6204 53.7284 28.4322 53.589 29.2469 53.6176H47.2727" stroke="black" stroke-width="4.09676" stroke-linecap="round" stroke-linejoin="round"/>
<path d="M81.4811 49.5207C81.4658 50.6013 81.0241 51.6321 80.2522 52.3885C79.8931 52.7905 79.4501 53.1089 78.9547 53.3213C78.4592 53.5336 77.9232 53.6347 77.3844 53.6175H66.7328L59.7684 61.6062L52.8038 53.6175H26.9943C26.4655 53.6182 25.9421 53.5112 25.456 53.3029C24.9699 53.0946 24.5314 52.7895 24.1672 52.4061C23.803 52.0227 23.5208 51.5692 23.3377 51.0731C23.1546 50.577 23.0745 50.0488 23.1023 49.5207C23.0745 48.9926 23.1546 48.4645 23.3377 47.9684C23.5208 47.4723 23.803 47.0187 24.1672 46.6353C24.5314 46.252 24.9699 45.9468 25.456 45.7385C25.9421 45.5303 26.4655 45.4232 26.9943 45.424H77.3844C78.4709 45.424 79.513 45.8556 80.2813 46.6239C81.0496 47.3922 81.4811 48.4342 81.4811 49.5207Z" stroke="black" stroke-width="4.09676" stroke-linecap="round" stroke-linejoin="round"/>
<path d="M46.6585 27.1935H57.9246C62.5967 27.1935 67.0774 29.0494 70.381 32.3531C73.6847 35.6567 75.5407 40.1375 75.5407 44.8096H29.0425C29.0425 40.1375 30.8984 35.6567 34.2021 32.3531C37.5057 29.0494 41.9864 27.1935 46.6585 27.1935Z" stroke="black" stroke-width="4.09676" stroke-linecap="round" stroke-linejoin="round"/>
<path d="M40.7181 36.4113L43.1762 39.0742" stroke="black" stroke-width="4.09676" stroke-linecap="round" stroke-linejoin="round"/>
<path d="M62.8411 35.3872L65.5039 38.2549" stroke="black" stroke-width="4.09676" stroke-linecap="round" stroke-linejoin="round"/>
<path d="M50.5507 36.6163L53.4184 33.9534" stroke="black" stroke-width="4.09676" stroke-linecap="round" stroke-linejoin="round"/>
</svg>
