<svg width="66" height="66" viewBox="0 0 66 66" fill="none" xmlns="http://www.w3.org/2000/svg">
<path d="M10.0425 47.1128H56.3358V50.1854C56.3358 52.3585 55.4726 54.4425 53.936 55.9791C52.3994 57.5157 50.3154 58.3789 48.1423 58.3789H18.236C16.0629 58.3789 13.9789 57.5157 12.4423 55.9791C10.9057 54.4425 10.0425 52.3585 10.0425 50.1854V47.1128Z" stroke="black" stroke-width="4.09676" stroke-linecap="round" stroke-linejoin="round"/>
<path d="M50.8048 34.6176H56.1307C56.9548 34.5901 57.7759 34.7288 58.5453 35.0253C59.3146 35.3217 60.0165 35.77 60.609 36.3434C61.2015 36.9168 61.6725 37.6036 61.994 38.3628C62.3156 39.122 62.4811 39.9382 62.4806 40.7627C62.4806 42.4468 61.8116 44.062 60.6208 45.2528C59.4299 46.4437 57.8148 47.1127 56.1307 47.1127H10.2469C9.42242 47.1132 8.6063 46.9477 7.84706 46.6262C7.08783 46.3046 6.40101 45.8335 5.82762 45.241C5.25423 44.6485 4.80594 43.9467 4.50944 43.1773C4.21295 42.408 4.07432 41.5868 4.1018 40.7627C4.07319 39.948 4.21262 39.1362 4.51132 38.3777C4.81001 37.6191 5.26163 36.9302 5.83806 36.3538C6.4145 35.7774 7.10337 35.3258 7.86188 35.0271C8.62038 34.7284 9.43224 34.589 10.2469 34.6176H28.2727" stroke="black" stroke-width="4.09676" stroke-linecap="round" stroke-linejoin="round"/>
<path d="M62.4811 30.5207C62.4658 31.6013 62.0241 32.6321 61.2522 33.3885C60.8931 33.7905 60.4501 34.1089 59.9547 34.3213C59.4592 34.5336 58.9232 34.6347 58.3844 34.6175H47.7328L40.7684 42.6062L33.8038 34.6175H7.99429C7.46549 34.6182 6.94206 34.5112 6.456 34.3029C5.96995 34.0946 5.53141 33.7895 5.1672 33.4061C4.80299 33.0227 4.52076 32.5692 4.33767 32.0731C4.15459 31.577 4.07449 31.0488 4.10232 30.5207C4.07449 29.9926 4.15459 29.4645 4.33767 28.9684C4.52076 28.4723 4.80299 28.0187 5.1672 27.6353C5.53141 27.252 5.96995 26.9468 6.456 26.7385C6.94206 26.5303 7.46549 26.4232 7.99429 26.424H58.3844C59.4709 26.424 60.513 26.8556 61.2813 27.6239C62.0496 28.3922 62.4811 29.4342 62.4811 30.5207Z" stroke="black" stroke-width="4.09676" stroke-linecap="round" stroke-linejoin="round"/>
<path d="M27.6585 8.19348H38.9246C43.5967 8.19348 48.0774 10.0494 51.381 13.3531C54.6847 16.6567 56.5407 21.1375 56.5407 25.8096H10.0425C10.0425 21.1375 11.8984 16.6567 15.2021 13.3531C18.5057 10.0494 22.9864 8.19348 27.6585 8.19348Z" stroke="black" stroke-width="4.09676" stroke-linecap="round" stroke-linejoin="round"/>
<path d="M21.7181 17.4113L24.1762 20.0742" stroke="black" stroke-width="4.09676" stroke-linecap="round" stroke-linejoin="round"/>
<path d="M43.8411 16.3872L46.5039 19.2549" stroke="black" stroke-width="4.09676" stroke-linecap="round" stroke-linejoin="round"/>
<path d="M31.5507 17.6163L34.4184 14.9534" stroke="black" stroke-width="4.09676" stroke-linecap="round" stroke-linejoin="round"/>
</svg>
