<svg width="78" height="32" viewBox="0 0 78 32" fill="none" xmlns="http://www.w3.org/2000/svg">
<path d="M9.33334 21.3333C10.6667 22.6667 13.3333 24 16 24C19.3333 24 22.6667 23.3333 22.6667 20C22.6667 16.6667 19.3994 16 16 16C12.6667 16 9.33334 15.3333 9.33334 12C9.33334 8.66667 12.6667 8 16 8C18.6667 8 21.3333 9.33333 22.6667 10.6667M16 4V28" stroke="black" stroke-width="3"/>
<path d="M54.6667 21.3333C56 22.6667 58.6667 24 61.3333 24C64.6667 24 68 23.3333 68 20C68 16.6667 64.7327 16 61.3333 16C58 16 54.6667 15.3333 54.6667 12C54.6667 8.66667 58 8 61.3333 8C64 8 66.6667 9.33333 68 10.6667M61.3333 4V28" stroke="black" stroke-opacity="0.5" stroke-width="3"/>
<path d="M32 21.3333C33.3334 22.6667 36 24 38.6667 24C42 24 45.3334 23.3333 45.3334 20C45.3334 16.6667 42.066 16 38.6667 16C35.3334 16 32 15.3333 32 12C32 8.66667 35.3334 8 38.6667 8C41.3334 8 44 9.33333 45.3334 10.6667M38.6667 4V28" stroke="black" stroke-opacity="0.5" stroke-width="3"/>
</svg>
