<svg width="53" height="22" viewBox="0 0 53 22" fill="none" xmlns="http://www.w3.org/2000/svg">
<path d="M5.07528 0.636363V21H0.769886V0.636363H5.07528ZM19.6644 6.4929C19.5849 5.69081 19.2435 5.06771 18.6403 4.62358C18.0371 4.17945 17.2184 3.95739 16.1843 3.95739C15.4817 3.95739 14.8884 4.05682 14.4045 4.25568C13.9206 4.44792 13.5494 4.71638 13.2908 5.06108C13.0389 5.40578 12.913 5.79688 12.913 6.23438C12.8997 6.59896 12.976 6.91714 13.1417 7.18892C13.314 7.4607 13.5494 7.69602 13.8477 7.89489C14.146 8.08712 14.4906 8.25615 14.8817 8.40199C15.2728 8.54119 15.6905 8.66051 16.1346 8.75994L17.9641 9.19744C18.8524 9.39631 19.6677 9.66146 20.4102 9.9929C21.1526 10.3243 21.7956 10.732 22.3391 11.2159C22.8827 11.6998 23.3036 12.2699 23.6019 12.9261C23.9068 13.5824 24.0626 14.3348 24.0692 15.1832C24.0626 16.4295 23.7444 17.5099 23.1147 18.4247C22.4916 19.3329 21.5901 20.0388 20.4102 20.5426C19.2369 21.0398 17.8216 21.2884 16.1644 21.2884C14.5205 21.2884 13.0887 21.0365 11.869 20.5327C10.6559 20.0289 9.70798 19.2831 9.02521 18.2955C8.34908 17.3011 7.99444 16.0715 7.96129 14.6065H12.1275C12.1739 15.2893 12.3694 15.8594 12.7141 16.3168C13.0655 16.7675 13.5328 17.1089 14.1161 17.3409C14.7061 17.5663 15.3723 17.679 16.1147 17.679C16.8439 17.679 17.4769 17.5729 18.0138 17.3608C18.5574 17.1487 18.9783 16.8537 19.2766 16.4759C19.5749 16.098 19.7241 15.6638 19.7241 15.1733C19.7241 14.7159 19.5882 14.3314 19.3164 14.0199C19.0513 13.7083 18.6602 13.4432 18.1431 13.2244C17.6327 13.0057 17.0063 12.8068 16.2638 12.6278L14.0465 12.071C12.3297 11.6534 10.9741 11.0005 9.97976 10.1122C8.98544 9.22396 8.4916 8.02746 8.49822 6.52273C8.4916 5.28977 8.81972 4.21259 9.4826 3.29119C10.1521 2.36979 11.0702 1.65057 12.2369 1.13352C13.4035 0.616477 14.7293 0.357954 16.2141 0.357954C17.7255 0.357954 19.0446 0.616477 20.1715 1.13352C21.305 1.65057 22.1867 2.36979 22.8164 3.29119C23.4461 4.21259 23.771 5.27983 23.7908 6.4929H19.6644ZM31.2706 0.636363V21H26.9652V0.636363H31.2706ZM52.7802 7.76562H48.4251C48.3455 7.20218 48.1831 6.7017 47.9379 6.2642C47.6926 5.82007 47.3777 5.44223 46.9933 5.13068C46.6088 4.81913 46.1647 4.58049 45.6609 4.41477C45.1637 4.24905 44.6235 4.16619 44.0401 4.16619C42.9862 4.16619 42.0681 4.42803 41.2859 4.9517C40.5037 5.46875 39.8971 6.22443 39.4663 7.21875C39.0354 8.20644 38.82 9.40625 38.82 10.8182C38.82 12.2699 39.0354 13.4896 39.4663 14.4773C39.9038 15.465 40.5136 16.2107 41.2958 16.7145C42.078 17.2183 42.9828 17.4702 44.0103 17.4702C44.587 17.4702 45.1206 17.3939 45.6112 17.2415C46.1083 17.089 46.5491 16.867 46.9336 16.5753C47.3181 16.277 47.6362 15.9157 47.8881 15.4915C48.1467 15.0672 48.3256 14.5833 48.4251 14.0398L52.7802 14.0597C52.6675 14.9943 52.3858 15.8958 51.935 16.7642C51.4909 17.6259 50.891 18.3982 50.1353 19.081C49.3862 19.7571 48.4914 20.294 47.4506 20.6918C46.4165 21.0829 45.2466 21.2784 43.9407 21.2784C42.1244 21.2784 40.5004 20.8674 39.0685 20.0455C37.6433 19.2235 36.5165 18.0336 35.6879 16.4759C34.8659 14.9181 34.4549 13.0322 34.4549 10.8182C34.4549 8.59754 34.8725 6.70833 35.7077 5.15057C36.543 3.5928 37.6765 2.40625 39.1083 1.59091C40.5401 0.768939 42.1509 0.357954 43.9407 0.357954C45.1206 0.357954 46.2144 0.523674 47.2219 0.855113C48.2362 1.18655 49.1344 1.67045 49.9165 2.30682C50.6987 2.93655 51.3351 3.70881 51.8256 4.62358C52.3228 5.53835 52.641 6.5857 52.7802 7.76562Z" fill="black"/>
</svg>
