<svg width="105" height="105" viewBox="0 0 105 105" fill="none" xmlns="http://www.w3.org/2000/svg">
<circle cx="52.5" cy="52.5" r="52.5" fill="#ECE0C8"/>
<path d="M32.9049 40.3028H70.5952V64.2689C70.5952 66.8222 69.5809 69.271 67.7754 71.0765C65.9699 72.882 63.5211 73.8963 60.9677 73.8963H42.5323C39.979 73.8963 37.5303 72.882 35.7248 71.0765C33.9193 69.271 32.9049 66.8222 32.9049 64.2689V40.3028Z" stroke="black" stroke-width="4.09676" stroke-linecap="round" stroke-linejoin="round"/>
<path d="M26.1449 73.8966H76.9447C76.9447 75.635 76.2541 77.3023 75.0248 78.5315C73.7956 79.7608 72.1284 80.4514 70.39 80.4514H32.9045C31.1661 80.4514 29.4989 79.7608 28.2697 78.5315C27.0404 77.3023 26.3498 75.635 26.3498 73.8966H26.1449Z" stroke="black" stroke-width="4.09676" stroke-linecap="round" stroke-linejoin="round"/>
<path d="M37.9421 32.9676L40.158 25.7198" stroke="black" stroke-width="4.09676" stroke-linecap="round" stroke-linejoin="round"/>
<path d="M62.9022 33.168L65.178 25.7242" stroke="black" stroke-width="4.09676" stroke-linecap="round" stroke-linejoin="round"/>
<path d="M51 30.7561L53.0961 23.9" stroke="black" stroke-width="4.09676" stroke-linecap="round" stroke-linejoin="round"/>
<path d="M70.5928 44.8095H80.4271V52.3885C80.4271 55.0505 79.3696 57.6034 77.4873 59.4858C75.605 61.3681 73.2549 62.4153 70.5929 62.4153L70.5928 44.8095Z" stroke="black" stroke-width="4.09676" stroke-linecap="round" stroke-linejoin="round"/>
</svg>
