<svg width="66" height="66" viewBox="0 0 66 66" fill="none" xmlns="http://www.w3.org/2000/svg">
<path d="M12.9049 21.3028H50.5952V45.2689C50.5952 47.8222 49.5809 50.271 47.7754 52.0765C45.9699 53.882 43.5211 54.8963 40.9677 54.8963H22.5323C19.979 54.8963 17.5303 53.882 15.7248 52.0765C13.9193 50.271 12.9049 47.8222 12.9049 45.2689V21.3028Z" stroke="black" stroke-width="4.09676" stroke-linecap="round" stroke-linejoin="round"/>
<path d="M6.1449 54.8966H56.9447C56.9447 56.635 56.2541 58.3023 55.0248 59.5315C53.7956 60.7608 52.1284 61.4514 50.39 61.4514H12.9045C11.1661 61.4514 9.49893 60.7608 8.26967 59.5315C7.0404 58.3023 6.34981 56.635 6.34981 54.8966H6.1449Z" stroke="black" stroke-width="4.09676" stroke-linecap="round" stroke-linejoin="round"/>
<path d="M17.9421 13.9676L20.158 6.71979" stroke="black" stroke-width="4.09676" stroke-linecap="round" stroke-linejoin="round"/>
<path d="M42.9022 14.168L45.178 6.72424" stroke="black" stroke-width="4.09676" stroke-linecap="round" stroke-linejoin="round"/>
<path d="M31 11.7561L33.0961 4.89999" stroke="black" stroke-width="4.09676" stroke-linecap="round" stroke-linejoin="round"/>
<path d="M50.5928 25.8095H60.4271V33.3885C60.4271 36.0505 59.3696 38.6034 57.4873 40.4858C55.605 42.3681 53.2549 43.4153 50.5929 43.4153L50.5928 25.8095Z" stroke="black" stroke-width="4.09676" stroke-linecap="round" stroke-linejoin="round"/>
</svg>
