<svg width="105" height="105" viewBox="0 0 105 105" fill="none" xmlns="http://www.w3.org/2000/svg">
<circle cx="52.5" cy="52.5" r="52.5" fill="#EACCCC"/>
<path d="M45.9188 37.6402L52.064 27.1934L76.4397 69.5948C60.0526 78.8126 43.8704 78.8126 27.4834 69.5948L39.364 49.111" stroke="black" stroke-width="4.09676" stroke-linejoin="round"/>
<path d="M30.9656 62.4255C37.2667 66.3467 44.5399 68.425 51.9615 68.425C59.383 68.425 66.6563 66.3467 72.9574 62.4255" stroke="black" stroke-width="4.09676" stroke-linejoin="round"/>
<path d="M55.9561 60.9918C58.1056 60.9918 59.8481 59.2494 59.8481 57.0999C59.8481 54.9505 58.1056 53.208 55.9561 53.208C53.8067 53.208 52.0642 54.9505 52.0642 57.0999C52.0642 59.2494 53.8067 60.9918 55.9561 60.9918Z" stroke="black" stroke-width="4.09676" stroke-linejoin="round"/>
<path d="M50.2206 43.7856C50.2206 45.5784 49.5084 47.2977 48.2407 48.5654C46.973 49.8331 45.2537 50.5453 43.4609 50.5453C41.9847 50.4769 40.5607 49.9785 39.3641 49.1114L45.9189 37.6405C47.1476 38.1475 48.2055 38.9956 48.9677 40.0845C49.73 41.1734 50.1647 42.4576 50.2206 43.7856Z" stroke="black" stroke-width="4.09676" stroke-linejoin="round"/>
</svg>
