<svg width="54" height="54" viewBox="0 0 54 54" fill="none" xmlns="http://www.w3.org/2000/svg">
<path d="M20.9188 12.6402L27.064 2.19342L51.4397 44.5948C35.0526 53.8126 18.8704 53.8126 2.4834 44.5948L14.364 24.111" stroke="black" stroke-width="4.09676" stroke-linejoin="round"/>
<path d="M5.96558 37.4255C12.2667 41.3467 19.5399 43.425 26.9615 43.425C34.383 43.425 41.6563 41.3467 47.9574 37.4255" stroke="black" stroke-width="4.09676" stroke-linejoin="round"/>
<path d="M30.9561 35.9918C33.1056 35.9918 34.8481 34.2494 34.8481 32.0999C34.8481 29.9505 33.1056 28.208 30.9561 28.208C28.8067 28.208 27.0642 29.9505 27.0642 32.0999C27.0642 34.2494 28.8067 35.9918 30.9561 35.9918Z" stroke="black" stroke-width="4.09676" stroke-linejoin="round"/>
<path d="M25.2206 18.7856C25.2206 20.5784 24.5084 22.2977 23.2407 23.5654C21.973 24.8331 20.2537 25.5453 18.4609 25.5453C16.9847 25.4769 15.5607 24.9785 14.3641 24.1114L20.9189 12.6405C22.1476 13.1475 23.2055 13.9956 23.9677 15.0845C24.73 16.1734 25.1647 17.4576 25.2206 18.7856Z" stroke="black" stroke-width="4.09676" stroke-linejoin="round"/>
</svg>
