<svg width="67" height="67" viewBox="0 0 67 67" fill="none" xmlns="http://www.w3.org/2000/svg">
<path d="M49.2481 23.4863C49.2481 24.2664 49.0945 25.0388 48.7959 25.7595C48.4974 26.4802 48.0598 27.1351 47.5082 27.6867C46.9566 28.2383 46.3018 28.6759 45.5811 28.9744C44.8603 29.2729 44.0879 29.4266 43.3078 29.4266H26.9208V41.7169C26.9208 42.8577 26.4676 43.9518 25.6609 44.7586C24.8542 45.5653 23.76 46.0185 22.6192 46.0185C21.4783 46.0185 20.3842 45.5653 19.5775 44.7586C18.7708 43.9518 18.3176 42.8577 18.3176 41.7169V29.4266H14.6305C13.1093 29.4266 11.6505 28.8223 10.5749 27.7467C9.49929 26.6711 8.89502 25.2123 8.89502 23.6911C8.89502 22.17 9.49929 20.7111 10.5749 19.6355C11.6505 18.5599 13.1093 17.9557 14.6305 17.9557C15.0295 14.3662 16.7318 11.048 19.4145 8.63001C22.0972 6.21207 25.5739 4.86253 29.1854 4.83728C32.7969 4.81202 36.2921 6.1128 39.0083 8.49298C41.7246 10.8732 43.4731 14.1673 43.9223 17.7508C45.3714 17.8546 46.727 18.5044 47.7156 19.5689C48.7041 20.6335 49.2518 22.0335 49.2481 23.4863Z" stroke="black" stroke-width="4.09676" stroke-linecap="round" stroke-linejoin="round"/>
<path d="M35.9336 38.2349V55.2364" stroke="black" stroke-width="4.09676" stroke-linecap="round" stroke-linejoin="round"/>
<path d="M22.6195 52.5732V56.4652" stroke="black" stroke-width="4.09676" stroke-linecap="round" stroke-linejoin="round"/>
<path d="M10.7388 27.9927V58.5135C10.7388 59.6001 11.1704 60.6421 11.9387 61.4104C12.707 62.1787 13.749 62.6103 14.8355 62.6103H43.1032C44.1897 62.6103 45.2317 62.1787 46 61.4104C46.7683 60.6421 47.1999 59.6001 47.1999 58.5135V27.9927" stroke="black" stroke-width="4.09676" stroke-linecap="round" stroke-linejoin="round"/>
<path d="M47.1996 33.1138H53.5496C54.3101 33.1138 55.0395 33.4159 55.5773 33.9537C56.1151 34.4915 56.4173 35.2209 56.4173 35.9815V48.8863C56.4173 49.6469 56.1151 50.3763 55.5773 50.9141C55.0395 51.4519 54.3101 51.754 53.5496 51.754H47.1996V33.3186V33.1138Z" stroke="black" stroke-width="4.09676" stroke-linecap="round" stroke-linejoin="round"/>
</svg>
