<svg width="59" height="59" viewBox="0 0 59 59" fill="none" xmlns="http://www.w3.org/2000/svg">
<path d="M32.0509 2.1452L13.2058 56.837" stroke="black" stroke-width="4.09676" stroke-linecap="round" stroke-linejoin="round"/>
<path d="M2.14502 48.2341L56.8367 29.3889" stroke="black" stroke-width="4.09676" stroke-linecap="round" stroke-linejoin="round"/>
<path d="M40.4502 33.4855C47.9167 33.4855 53.9695 27.4328 53.9695 19.9663C53.9695 12.4998 47.9167 6.44699 40.4502 6.44699C32.9837 6.44699 26.9309 12.4998 26.9309 19.9663C26.9309 27.4328 32.9837 33.4855 40.4502 33.4855Z" stroke="black" stroke-width="4.09676" stroke-linecap="round" stroke-linejoin="round"/>
<path d="M40.45 24.8824C43.1651 24.8824 45.3661 22.6813 45.3661 19.9662C45.3661 17.2511 43.1651 15.05 40.45 15.05C37.7349 15.05 35.5339 17.2511 35.5339 19.9662C35.5339 22.6813 37.7349 24.8824 40.45 24.8824Z" stroke="black" stroke-width="4.09676" stroke-linecap="round" stroke-linejoin="round"/>
</svg>
