<svg width="66" height="66" viewBox="0 0 66 66" fill="none" xmlns="http://www.w3.org/2000/svg">
<path d="M4.09717 32.774H60.2228V38.0998C60.2228 43.3695 58.1295 48.4234 54.4032 52.1496C50.677 55.8758 45.6232 57.9692 40.3535 57.9692H23.9665C18.6968 57.9692 13.643 55.8758 9.91675 52.1496C6.19053 48.4234 4.09717 43.3695 4.09717 38.0998V32.774Z" stroke="black" stroke-width="4.09676" stroke-linecap="round" stroke-linejoin="round"/>
<path d="M5.94092 8.80795H6.76019C10.5087 8.80795 14.1037 10.2971 16.7543 12.9477C19.4049 15.5983 20.8941 19.1932 20.8941 22.9418H20.0747C16.3261 22.9418 12.7312 21.4527 10.0806 18.8021C7.42996 16.1515 5.94092 12.5565 5.94092 8.80795Z" stroke="black" stroke-width="4.09676" stroke-linejoin="round"/>
<path d="M26.6293 12.6998C26.9625 10.8728 27.922 9.21898 29.3425 8.02271C30.7631 6.82644 32.556 6.16246 34.4131 6.14499C36.5155 6.19692 38.5174 7.05531 40.0045 8.54237C41.4916 10.0294 42.3499 12.0313 42.4018 14.1337C42.3658 14.9667 42.2282 15.7921 41.9921 16.5917L44.4502 16.1821C46.5526 16.234 48.5544 17.0924 50.0415 18.5794C51.5285 20.0665 52.3869 22.0684 52.4388 24.1708" stroke="black" stroke-width="4.09676" stroke-linecap="round" stroke-linejoin="round"/>
<path d="M41.5821 24.7855C39.409 24.7855 37.325 23.9223 35.7884 22.3857C34.2518 20.8491 33.3885 18.765 33.3885 16.592" stroke="black" stroke-width="4.09676" stroke-linecap="round" stroke-linejoin="round"/>
</svg>
