<svg width="105" height="105" viewBox="0 0 105 105" fill="none" xmlns="http://www.w3.org/2000/svg">
<circle cx="52.5" cy="52.5" r="52.5" fill="#CAEECB"/>
<path d="M27.0972 51.774H83.2228V57.0998C83.2228 62.3695 81.1295 67.4234 77.4032 71.1496C73.677 74.8758 68.6232 76.9692 63.3535 76.9692H46.9665C41.6968 76.9692 36.643 74.8758 32.9167 71.1496C29.1905 67.4234 27.0972 62.3695 27.0972 57.0998V51.774Z" stroke="black" stroke-width="4.09676" stroke-linecap="round" stroke-linejoin="round"/>
<path d="M28.9409 27.808H29.7602C33.5087 27.808 37.1037 29.2971 39.7543 31.9477C42.4049 34.5983 43.8941 38.1932 43.8941 41.9418H43.0747C39.3261 41.9418 35.7312 40.4527 33.0806 37.8021C30.43 35.1515 28.9409 31.5565 28.9409 27.808Z" stroke="black" stroke-width="4.09676" stroke-linejoin="round"/>
<path d="M49.6293 31.6998C49.9625 29.8728 50.922 28.219 52.3425 27.0227C53.7631 25.8264 55.556 25.1625 57.4131 25.145C59.5155 25.1969 61.5174 26.0553 63.0045 27.5424C64.4916 29.0294 65.3499 31.0313 65.4018 33.1337C65.3658 33.9667 65.2282 34.7921 64.9921 35.5917L67.4502 35.1821C69.5526 35.234 71.5544 36.0924 73.0415 37.5794C74.5285 39.0665 75.3869 41.0684 75.4388 43.1708" stroke="black" stroke-width="4.09676" stroke-linecap="round" stroke-linejoin="round"/>
<path d="M64.5821 43.7855C62.409 43.7855 60.325 42.9223 58.7884 41.3857C57.2518 39.8491 56.3885 37.765 56.3885 35.592" stroke="black" stroke-width="4.09676" stroke-linecap="round" stroke-linejoin="round"/>
</svg>
